<svg width="70" height="70" viewBox="0 0 70 70" fill="none" xmlns="http://www.w3.org/2000/svg">
<g clip-path="url(#clip0_461_36457)">
<rect width="70" height="70" rx="10" fill="url(#paint0_linear_461_36457)"/>
<rect width="70" height="70" rx="10" fill="white"/>
<g filter="url(#filter0_d_461_36457)">
<g clip-path="url(#clip1_461_36457)">
<rect x="35" y="3" width="33" height="33" rx="16.5" fill="#858586"/>
<circle cx="36" cy="26" r="1" fill="#505051"/>
<circle cx="38" cy="9" r="2" fill="#505051"/>
<ellipse cx="41" cy="18.5" rx="2" ry="2.5" fill="#505051"/>
<g clip-path="url(#clip2_461_36457)">
<rect x="28" y="2" width="35" height="35" rx="17.5" fill="#FDCE55"/>
<circle cx="46.4444" cy="14.6573" r="6.93076" transform="rotate(-4.44291 46.4444 14.6573)" fill="#ECAD20"/>
<circle cx="58.3863" cy="29.1776" r="0.770084" transform="rotate(-4.44291 58.3863 29.1776)" fill="#ECAD20"/>
<ellipse cx="43.9178" cy="31.8465" rx="3.08034" ry="2.31025" transform="rotate(-4.44291 43.9178 31.8465)" fill="#ECAD20"/>
<ellipse cx="67.0623" cy="21.5518" rx="5.39059" ry="6.16067" transform="rotate(-4.44291 67.0623 21.5518)" fill="#ECAD20"/>
</g>
</g>
<rect x="36" y="4" width="31" height="31" rx="15.5" stroke="black" stroke-width="2"/>
</g>
<g filter="url(#filter1_d_461_36457)">
<path d="M23.1988 36.4549L13.0845 46.3747L23 56L38.5647 41.123L43.7191 32.5648L43.5 27H42.5L34.4801 27.9939L23.1988 36.4549Z" fill="white" stroke="white" stroke-width="2"/>
<path d="M10.167 53.5714L12.4038 51.1401L19.795 56.3917L17.1692 59.4066L11.5286 60.2818L9.5835 59.1148L10.167 53.5714Z" fill="#F6752A" stroke="#F6752A" stroke-width="2"/>
<path d="M13.4736 53.6687L14.3489 52.5016L17.5582 55.322C17.1043 55.6137 16.1189 56.2362 15.8076 56.3918C15.4964 56.5474 14.7054 56.7808 14.3489 56.878H12.6956V55.322L13.4736 53.6687Z" fill="#FDCD55" stroke="#FDCD55" stroke-width="2"/>
<path d="M18.7251 51.1401L26.5053 43.3599" stroke="#1FC3F3" stroke-width="2"/>
<path d="M12.9352 46.4389L22 37L18.5 37.5L14.985 37.1251L9.47801 42.5097L12.9352 46.4389Z" fill="#1FC3F3" stroke="#1FC3F3" stroke-width="2"/>
<path d="M23.3936 55.8082L32 48.5L31.9579 55.6137L27.3389 60.2819L23.3936 55.8082Z" fill="#1FC3F3" stroke="#1FC3F3" stroke-width="2"/>
<path d="M40.4125 37.4274L32.6323 29.6472L35.7444 27.4104L42 26.5L43.9451 27.4725L42.5 34L40.4125 37.4274Z" fill="#E92F3F" stroke="#E92F3F" stroke-width="2"/>
<path d="M12.8901 50.5565L13.5 47L23.5737 56.1143L23 56L22.4796 55.9391L19.1143 56.489L12.8901 50.5565Z" fill="#5F686D"/>
<path d="M12.5 46L13.5 47M13.5 47L12.8901 50.5565L19.1143 56.489L22.4796 55.9391L23 56L23.5737 56.1143L24 56.5L13.5 47Z" stroke="#5F686D" stroke-width="2"/>
<path d="M34.2857 28.0912C37.5923 26.1462 43.9137 26.2434 43.9137 26.2434C43.9137 26.2434 44.789 31.5923 43.233 34.8989C41.6769 38.2055 32.1462 48.2225 32.1462 48.2225L32.2434 55.6138L27.6725 60.1846L23.6852 56.1973L19.8923 56.9753L16.683 60.1846C16.683 60.1846 10.3615 60.8654 9.87527 60.1846C9.38901 59.5039 9.87527 53.4742 9.87527 53.4742L12.3066 50.2648L12.8901 46.3747L9 42.4846L14.4462 37.0385H21.9346C21.9346 37.0385 30.9791 30.0363 34.2857 28.0912Z" stroke="black" stroke-width="2"/>
<circle cx="30.6874" cy="38.5944" r="3.20934" fill="#D9D9D9"/>
<circle cx="30.6871" cy="38.5945" r="2.04231" fill="white"/>
</g>
<path fill-rule="evenodd" clip-rule="evenodd" d="M45.0801 55.1322H44.36V52.3111H43.4277V51.6303H46.022V52.3109H45.0801V55.1322ZM46.6987 55.1322H46.023V52.6662H46.6987V53.0605C46.7828 52.8189 47.0343 52.6365 47.3105 52.6365C47.3871 52.6348 47.4636 52.6447 47.5372 52.666V53.3517C47.4338 53.317 47.3449 53.2974 47.2317 53.2974C46.9107 53.2974 46.6987 53.544 46.6987 53.9535V55.1322ZM49.5445 54.8558C49.431 55.0137 49.1746 55.1864 48.8342 55.1864L48.8344 55.1866C48.1783 55.1866 47.6752 54.5948 47.6752 53.8992C47.6752 53.2038 48.1783 52.612 48.8342 52.612C49.1746 52.612 49.431 52.7847 49.5445 52.9424V52.6662H50.2203V55.132H49.5445V54.8558ZM48.3557 53.8992C48.3557 54.2888 48.6024 54.5699 48.9774 54.5699C49.3522 54.5699 49.5988 54.2888 49.5988 53.8992C49.5988 53.5094 49.3522 53.2282 48.9774 53.2282C48.6024 53.2282 48.3557 53.5094 48.3557 53.8992ZM52.5391 54.8558C52.4258 55.0137 52.1694 55.1864 51.829 55.1864V55.1866C51.1729 55.1866 50.6698 54.5948 50.6698 53.8992C50.6698 53.2038 51.1729 52.612 51.829 52.612C52.1694 52.612 52.4258 52.7847 52.5391 52.9426V51.4333H53.2149V55.132H52.5391V54.8558ZM51.3505 53.8992C51.3505 54.2888 51.5972 54.5699 51.972 54.5699C52.3468 54.5699 52.5934 54.2888 52.5934 53.8992C52.5934 53.5094 52.3468 53.2282 51.972 53.2282C51.5972 53.2282 51.3505 53.5094 51.3505 53.8992ZM54.3234 52.2585C54.2708 52.2798 54.2145 52.2905 54.1578 52.2901C54.0443 52.2891 53.9357 52.2436 53.8554 52.1634C53.7752 52.0831 53.7297 51.9745 53.7287 51.861C53.7297 51.7475 53.7752 51.6389 53.8554 51.5586C53.9357 51.4783 54.0443 51.4328 54.1578 51.4319C54.2145 51.4314 54.2708 51.4421 54.3234 51.4635C54.3759 51.4848 54.4238 51.5163 54.4641 51.5562C54.5044 51.5961 54.5365 51.6435 54.5585 51.6958C54.5804 51.7481 54.5918 51.8043 54.592 51.861C54.5918 51.9177 54.5804 51.9738 54.5585 52.0261C54.5365 52.0784 54.5044 52.1259 54.4641 52.1658C54.4238 52.2057 54.3759 52.2372 54.3234 52.2585ZM54.4982 55.1322H53.8225V52.6942H54.4982V55.1322ZM55.7734 55.1322H55.0977V52.666H55.7734V52.9471C55.9066 52.7499 56.1581 52.6118 56.4789 52.6118C57.0756 52.6118 57.4308 53.0459 57.4308 53.687V55.1322H56.7551V53.8004C56.7551 53.4454 56.602 53.2284 56.3209 53.2284C56.0052 53.2284 55.7734 53.4551 55.7734 53.9288V55.1322ZM58.5239 53.8445C58.5239 54.2194 58.8098 54.4759 59.1502 54.4759C59.4906 54.4759 59.7765 54.2194 59.7765 53.8445C59.7765 53.4649 59.4906 53.2132 59.1502 53.2132C58.8098 53.2132 58.5239 53.4649 58.5239 53.8445ZM60.3981 54.9246C60.3981 55.8126 59.8259 56.1973 59.0712 56.1973C58.6421 56.1973 58.2031 56.0742 57.9221 55.8028L58.292 55.2998C58.5091 55.5118 58.7853 55.6056 59.0615 55.6056C59.461 55.6056 59.7224 55.3245 59.7224 54.9299V54.7622C59.5892 54.9447 59.3229 55.0876 59.0072 55.0876C58.3611 55.0876 57.8431 54.5352 57.8431 53.8447C57.8431 53.1494 58.3611 52.597 59.0072 52.597C59.3227 52.597 59.5892 52.7351 59.7224 52.9273V52.6511H60.3981V54.9246Z" fill="black"/>
<path d="M43.62 50.014C43.5227 50.014 43.4347 49.9973 43.356 49.964C43.2787 49.9307 43.2173 49.8827 43.172 49.82C43.1267 49.7573 43.1033 49.6833 43.102 49.598H43.402C43.406 49.6553 43.426 49.7007 43.462 49.734C43.4993 49.7673 43.55 49.784 43.614 49.784C43.6793 49.784 43.7307 49.7687 43.768 49.738C43.8053 49.706 43.824 49.6647 43.824 49.614C43.824 49.5727 43.8113 49.5387 43.786 49.512C43.7607 49.4853 43.7287 49.4647 43.69 49.45C43.6527 49.434 43.6007 49.4167 43.534 49.398C43.4433 49.3713 43.3693 49.3453 43.312 49.32C43.256 49.2933 43.2073 49.254 43.166 49.202C43.126 49.1487 43.106 49.078 43.106 48.99C43.106 48.9073 43.1267 48.8353 43.168 48.774C43.2093 48.7127 43.2673 48.666 43.342 48.634C43.4167 48.6007 43.502 48.584 43.598 48.584C43.742 48.584 43.8587 48.6193 43.948 48.69C44.0387 48.7593 44.0887 48.8567 44.098 48.982H43.79C43.7873 48.934 43.7667 48.8947 43.728 48.864C43.6907 48.832 43.6407 48.816 43.578 48.816C43.5233 48.816 43.4793 48.83 43.446 48.858C43.414 48.886 43.398 48.9267 43.398 48.98C43.398 49.0173 43.41 49.0487 43.434 49.074C43.4593 49.098 43.49 49.118 43.526 49.134C43.5633 49.1487 43.6153 49.166 43.682 49.186C43.7727 49.2127 43.8467 49.2393 43.904 49.266C43.9613 49.2927 44.0107 49.3327 44.052 49.386C44.0933 49.4393 44.114 49.5093 44.114 49.596C44.114 49.6707 44.0947 49.74 44.056 49.804C44.0173 49.868 43.9607 49.9193 43.886 49.958C43.8113 49.9953 43.7227 50.014 43.62 50.014ZM44.6828 49.122V49.658C44.6828 49.6953 44.6914 49.7227 44.7088 49.74C44.7274 49.756 44.7581 49.764 44.8008 49.764H44.9308V50H44.7548C44.5188 50 44.4008 49.8853 44.4008 49.656V49.122H44.2688V48.892H44.4008V48.618H44.6828V48.892H44.9308V49.122H44.6828ZM45.6241 50.018C45.5175 50.018 45.4215 49.9947 45.3361 49.948C45.2508 49.9 45.1835 49.8327 45.1341 49.746C45.0861 49.6593 45.0621 49.5593 45.0621 49.446C45.0621 49.3327 45.0868 49.2327 45.1361 49.146C45.1868 49.0593 45.2555 48.9927 45.3421 48.946C45.4288 48.898 45.5255 48.874 45.6321 48.874C45.7388 48.874 45.8355 48.898 45.9221 48.946C46.0088 48.9927 46.0768 49.0593 46.1261 49.146C46.1768 49.2327 46.2021 49.3327 46.2021 49.446C46.2021 49.5593 46.1761 49.6593 46.1241 49.746C46.0735 49.8327 46.0041 49.9 45.9161 49.948C45.8295 49.9947 45.7321 50.018 45.6241 50.018ZM45.6241 49.774C45.6748 49.774 45.7221 49.762 45.7661 49.738C45.8115 49.7127 45.8475 49.6753 45.8741 49.626C45.9008 49.5767 45.9141 49.5167 45.9141 49.446C45.9141 49.3407 45.8861 49.26 45.8301 49.204C45.7755 49.1467 45.7081 49.118 45.6281 49.118C45.5481 49.118 45.4808 49.1467 45.4261 49.204C45.3728 49.26 45.3461 49.3407 45.3461 49.446C45.3461 49.5513 45.3721 49.6327 45.4241 49.69C45.4775 49.746 45.5441 49.774 45.6241 49.774ZM46.3355 49.446C46.3355 49.3313 46.3589 49.2313 46.4055 49.146C46.4522 49.0593 46.5169 48.9927 46.5995 48.946C46.6822 48.898 46.7769 48.874 46.8835 48.874C47.0209 48.874 47.1342 48.9087 47.2235 48.978C47.3142 49.046 47.3749 49.142 47.4055 49.266H47.1035C47.0875 49.218 47.0602 49.1807 47.0215 49.154C46.9842 49.126 46.9375 49.112 46.8815 49.112C46.8015 49.112 46.7382 49.1413 46.6915 49.2C46.6449 49.2573 46.6215 49.3393 46.6215 49.446C46.6215 49.5513 46.6449 49.6333 46.6915 49.692C46.7382 49.7493 46.8015 49.778 46.8815 49.778C46.9949 49.778 47.0689 49.7273 47.1035 49.626H47.4055C47.3749 49.746 47.3142 49.8413 47.2235 49.912C47.1329 49.9827 47.0195 50.018 46.8835 50.018C46.7769 50.018 46.6822 49.9947 46.5995 49.948C46.5169 49.9 46.4522 49.8333 46.4055 49.748C46.3589 49.6613 46.3355 49.5607 46.3355 49.446ZM48.2667 50L47.8907 49.528V50H47.6107V48.52H47.8907V49.362L48.2627 48.892H48.6267L48.1387 49.448L48.6307 50H48.2667ZM49.5812 49.122V49.658C49.5812 49.6953 49.5899 49.7227 49.6072 49.74C49.6259 49.756 49.6565 49.764 49.6992 49.764H49.8292V50H49.6532C49.4172 50 49.2992 49.8853 49.2992 49.656V49.122H49.1672V48.892H49.2992V48.618H49.5812V48.892H49.8292V49.122H49.5812ZM50.5226 50.018C50.4159 50.018 50.3199 49.9947 50.2346 49.948C50.1492 49.9 50.0819 49.8327 50.0326 49.746C49.9846 49.6593 49.9606 49.5593 49.9606 49.446C49.9606 49.3327 49.9852 49.2327 50.0346 49.146C50.0852 49.0593 50.1539 48.9927 50.2406 48.946C50.3272 48.898 50.4239 48.874 50.5306 48.874C50.6372 48.874 50.7339 48.898 50.8206 48.946C50.9072 48.9927 50.9752 49.0593 51.0246 49.146C51.0752 49.2327 51.1006 49.3327 51.1006 49.446C51.1006 49.5593 51.0746 49.6593 51.0226 49.746C50.9719 49.8327 50.9026 49.9 50.8146 49.948C50.7279 49.9947 50.6306 50.018 50.5226 50.018ZM50.5226 49.774C50.5732 49.774 50.6206 49.762 50.6646 49.738C50.7099 49.7127 50.7459 49.6753 50.7726 49.626C50.7992 49.5767 50.8126 49.5167 50.8126 49.446C50.8126 49.3407 50.7846 49.26 50.7286 49.204C50.6739 49.1467 50.6066 49.118 50.5266 49.118C50.4466 49.118 50.3792 49.1467 50.3246 49.204C50.2712 49.26 50.2446 49.3407 50.2446 49.446C50.2446 49.5513 50.2706 49.6327 50.3226 49.69C50.3759 49.746 50.4426 49.774 50.5226 49.774ZM52.1085 49.122V49.658C52.1085 49.6953 52.1172 49.7227 52.1345 49.74C52.1532 49.756 52.1839 49.764 52.2265 49.764H52.3565V50H52.1805C51.9445 50 51.8265 49.8853 51.8265 49.656V49.122H51.6945V48.892H51.8265V48.618H52.1085V48.892H52.3565V49.122H52.1085ZM53.1819 48.876C53.2659 48.876 53.3406 48.8947 53.4059 48.932C53.4713 48.968 53.5219 49.022 53.5579 49.094C53.5953 49.1647 53.6139 49.25 53.6139 49.35V50H53.3339V49.388C53.3339 49.3 53.3119 49.2327 53.2679 49.186C53.2239 49.138 53.1639 49.114 53.0879 49.114C53.0106 49.114 52.9493 49.138 52.9039 49.186C52.8599 49.2327 52.8379 49.3 52.8379 49.388V50H52.5579V48.52H52.8379V49.03C52.8739 48.982 52.9219 48.9447 52.9819 48.918C53.0419 48.89 53.1086 48.876 53.1819 48.876ZM54.9102 49.422C54.9102 49.462 54.9075 49.498 54.9022 49.53H54.0922C54.0989 49.61 54.1269 49.6727 54.1762 49.718C54.2255 49.7633 54.2862 49.786 54.3582 49.786C54.4622 49.786 54.5362 49.7413 54.5802 49.652H54.8822C54.8502 49.7587 54.7889 49.8467 54.6982 49.916C54.6075 49.984 54.4962 50.018 54.3642 50.018C54.2575 50.018 54.1615 49.9947 54.0762 49.948C53.9922 49.9 53.9262 49.8327 53.8782 49.746C53.8315 49.6593 53.8082 49.5593 53.8082 49.446C53.8082 49.3313 53.8315 49.2307 53.8782 49.144C53.9249 49.0573 53.9902 48.9907 54.0742 48.944C54.1582 48.8973 54.2549 48.874 54.3642 48.874C54.4695 48.874 54.5635 48.8967 54.6462 48.942C54.7302 48.9873 54.7949 49.052 54.8402 49.136C54.8869 49.2187 54.9102 49.314 54.9102 49.422ZM54.6202 49.342C54.6189 49.27 54.5929 49.2127 54.5422 49.17C54.4915 49.126 54.4295 49.104 54.3562 49.104C54.2869 49.104 54.2282 49.1253 54.1802 49.168C54.1335 49.2093 54.1049 49.2673 54.0942 49.342H54.6202ZM57.1131 48.604V50H56.8331V49.092L56.4591 50H56.2471L55.8711 49.092V50H55.5911V48.604H55.9091L56.3531 49.642L56.7971 48.604H57.1131ZM57.882 50.018C57.7753 50.018 57.6793 49.9947 57.594 49.948C57.5086 49.9 57.4413 49.8327 57.392 49.746C57.344 49.6593 57.32 49.5593 57.32 49.446C57.32 49.3327 57.3446 49.2327 57.394 49.146C57.4446 49.0593 57.5133 48.9927 57.6 48.946C57.6866 48.898 57.7833 48.874 57.89 48.874C57.9966 48.874 58.0933 48.898 58.18 48.946C58.2666 48.9927 58.3346 49.0593 58.384 49.146C58.4346 49.2327 58.46 49.3327 58.46 49.446C58.46 49.5593 58.434 49.6593 58.382 49.746C58.3313 49.8327 58.262 49.9 58.174 49.948C58.0873 49.9947 57.99 50.018 57.882 50.018ZM57.882 49.774C57.9326 49.774 57.98 49.762 58.024 49.738C58.0693 49.7127 58.1053 49.6753 58.132 49.626C58.1586 49.5767 58.172 49.5167 58.172 49.446C58.172 49.3407 58.144 49.26 58.088 49.204C58.0333 49.1467 57.966 49.118 57.886 49.118C57.806 49.118 57.7386 49.1467 57.684 49.204C57.6306 49.26 57.604 49.3407 57.604 49.446C57.604 49.5513 57.63 49.6327 57.682 49.69C57.7353 49.746 57.802 49.774 57.882 49.774ZM59.1573 50.018C59.0507 50.018 58.9547 49.9947 58.8693 49.948C58.784 49.9 58.7167 49.8327 58.6673 49.746C58.6193 49.6593 58.5953 49.5593 58.5953 49.446C58.5953 49.3327 58.62 49.2327 58.6693 49.146C58.72 49.0593 58.7887 48.9927 58.8753 48.946C58.962 48.898 59.0587 48.874 59.1653 48.874C59.272 48.874 59.3687 48.898 59.4553 48.946C59.542 48.9927 59.61 49.0593 59.6593 49.146C59.71 49.2327 59.7353 49.3327 59.7353 49.446C59.7353 49.5593 59.7093 49.6593 59.6573 49.746C59.6067 49.8327 59.5373 49.9 59.4493 49.948C59.3627 49.9947 59.2653 50.018 59.1573 50.018ZM59.1573 49.774C59.208 49.774 59.2553 49.762 59.2993 49.738C59.3447 49.7127 59.3807 49.6753 59.4073 49.626C59.434 49.5767 59.4473 49.5167 59.4473 49.446C59.4473 49.3407 59.4193 49.26 59.3633 49.204C59.3087 49.1467 59.2413 49.118 59.1613 49.118C59.0813 49.118 59.014 49.1467 58.9593 49.204C58.906 49.26 58.8793 49.3407 58.8793 49.446C58.8793 49.5513 58.9053 49.6327 58.9573 49.69C59.0107 49.746 59.0773 49.774 59.1573 49.774ZM60.5547 48.876C60.6867 48.876 60.7934 48.918 60.8747 49.002C60.9561 49.0847 60.9967 49.2007 60.9967 49.35V50H60.7167V49.388C60.7167 49.3 60.6947 49.2327 60.6507 49.186C60.6067 49.138 60.5467 49.114 60.4707 49.114C60.3934 49.114 60.3321 49.138 60.2867 49.186C60.2427 49.2327 60.2207 49.3 60.2207 49.388V50H59.9407V48.892H60.2207V49.03C60.2581 48.982 60.3054 48.9447 60.3627 48.918C60.4214 48.89 60.4854 48.876 60.5547 48.876ZM62.1016 48.58L62.0696 49.546H61.8336L61.7996 48.58H62.1016ZM61.9576 50.014C61.9069 50.014 61.8649 49.9987 61.8316 49.968C61.7996 49.936 61.7836 49.8967 61.7836 49.85C61.7836 49.8033 61.7996 49.7647 61.8316 49.734C61.8649 49.702 61.9069 49.686 61.9576 49.686C62.0069 49.686 62.0476 49.702 62.0796 49.734C62.1116 49.7647 62.1276 49.8033 62.1276 49.85C62.1276 49.8967 62.1116 49.936 62.0796 49.968C62.0476 49.9987 62.0069 50.014 61.9576 50.014Z" fill="black"/>
</g>
<defs>
<filter id="filter0_d_461_36457" x="31" y="3" width="41" height="41" filterUnits="userSpaceOnUse" color-interpolation-filters="sRGB">
<feFlood flood-opacity="0" result="BackgroundImageFix"/>
<feColorMatrix in="SourceAlpha" type="matrix" values="0 0 0 0 0 0 0 0 0 0 0 0 0 0 0 0 0 0 127 0" result="hardAlpha"/>
<feOffset dy="4"/>
<feGaussianBlur stdDeviation="2"/>
<feComposite in2="hardAlpha" operator="out"/>
<feColorMatrix type="matrix" values="0 0 0 0 0 0 0 0 0 0 0 0 0 0 0 0 0 0 0.25 0"/>
<feBlend mode="normal" in2="BackgroundImageFix" result="effect1_dropShadow_461_36457"/>
<feBlend mode="normal" in="SourceGraphic" in2="effect1_dropShadow_461_36457" result="shape"/>
</filter>
<filter id="filter1_d_461_36457" x="3.58569" y="25.2426" width="45.5735" height="44.5035" filterUnits="userSpaceOnUse" color-interpolation-filters="sRGB">
<feFlood flood-opacity="0" result="BackgroundImageFix"/>
<feColorMatrix in="SourceAlpha" type="matrix" values="0 0 0 0 0 0 0 0 0 0 0 0 0 0 0 0 0 0 127 0" result="hardAlpha"/>
<feOffset dy="4"/>
<feGaussianBlur stdDeviation="2"/>
<feComposite in2="hardAlpha" operator="out"/>
<feColorMatrix type="matrix" values="0 0 0 0 0 0 0 0 0 0 0 0 0 0 0 0 0 0 0.25 0"/>
<feBlend mode="normal" in2="BackgroundImageFix" result="effect1_dropShadow_461_36457"/>
<feBlend mode="normal" in="SourceGraphic" in2="effect1_dropShadow_461_36457" result="shape"/>
</filter>
<linearGradient id="paint0_linear_461_36457" x1="35" y1="3.1" x2="35" y2="83.5" gradientUnits="userSpaceOnUse">
<stop offset="0.05" stop-color="#22285A"/>
<stop offset="0.6" stop-color="#F98E76"/>
</linearGradient>
<clipPath id="clip0_461_36457">
<rect width="70" height="70" rx="10" fill="white"/>
</clipPath>
<clipPath id="clip1_461_36457">
<rect x="35" y="3" width="33" height="33" rx="16.5" fill="white"/>
</clipPath>
<clipPath id="clip2_461_36457">
<rect x="28" y="2" width="35" height="35" rx="17.5" fill="white"/>
</clipPath>
</defs>
</svg>
