<svg width="100" height="100" viewBox="0 0 100 100" fill="none" xmlns="http://www.w3.org/2000/svg">
<rect width="100" height="100" rx="20" fill="url(#paint0_linear_358_34864)"/>
<rect width="100" height="100" rx="20" fill="white"/>
<g filter="url(#filter0_d_358_34864)">
<g clip-path="url(#clip0_358_34864)">
<rect x="51" y="11" width="43" height="43" rx="21.5" fill="#858586"/>
<ellipse cx="87" cy="35" rx="6" ry="7" fill="#505051"/>
<circle cx="84.5" cy="47.5" r="2.5" fill="#505051"/>
<ellipse cx="70.5" cy="38" rx="3.5" ry="4" fill="#505051"/>
<ellipse cx="77" cy="19.5" rx="3" ry="3.5" fill="#505051"/>
<g clip-path="url(#clip1_358_34864)">
<rect x="49" y="15" width="36" height="36" rx="18" fill="#FDCE55"/>
<ellipse cx="5.33039" cy="4.77307" rx="5.33039" ry="4.77307" transform="matrix(-0.814148 -0.580657 0.59321 -0.805048 66.8167 40.1922)" fill="#ECAD20"/>
<ellipse cx="1.59912" cy="1.59102" rx="1.59912" ry="1.59102" transform="matrix(-0.814148 -0.580657 0.59321 -0.805048 65.449 22.2823)" fill="#ECAD20"/>
<ellipse cx="2.13216" cy="2.12137" rx="2.13216" ry="2.12137" transform="matrix(-0.814148 -0.580657 0.59321 -0.805048 74.1284 28.4725)" fill="#ECAD20"/>
<ellipse cx="3.19824" cy="3.71239" rx="3.19824" ry="3.71239" transform="matrix(-0.814148 -0.580657 0.59321 -0.805048 78.8809 43.5859)" fill="#ECAD20"/>
<ellipse cx="2.13216" cy="2.12137" rx="2.13216" ry="2.12137" transform="matrix(-0.814148 -0.580657 0.59321 -0.805048 66.752 49.2646)" fill="#ECAD20"/>
<ellipse cx="4.79735" cy="4.77307" rx="4.79735" ry="4.77307" transform="matrix(-0.814148 -0.580657 0.59321 -0.805048 57.8115 27.2563)" fill="#ECAD20"/>
</g>
</g>
<rect x="52.5" y="12.5" width="40" height="40" rx="20" stroke="black" stroke-width="3"/>
</g>
<g filter="url(#filter1_d_358_34864)">
<path d="M35.5243 54.6466L22.3289 67.5884L36 79.5L55.5713 60.7369L62.296 49.5714V41.1974H60.6465L50.2424 43.6081L35.5243 54.6466Z" fill="white" stroke="white" stroke-width="3"/>
<path d="M18.5225 76.9775L21.4407 73.8055L31.0836 80.657L27.6578 84.5903L20.2988 85.7322L17.7612 84.2096L18.5225 76.9775Z" fill="#F6752A" stroke="#F6752A" stroke-width="3"/>
<path d="M22.8366 77.1043L23.9785 75.5818L28.1655 79.2613C27.5734 79.6419 26.2877 80.454 25.8817 80.657C25.4757 80.86 24.4437 81.1645 23.9785 81.2914H21.8215V79.2613L22.8366 77.1043Z" fill="#FDCD55" stroke="#FDCD55" stroke-width="3"/>
<path d="M29.688 73.8055L39.8384 63.6551" stroke="#1FC3F3" stroke-width="3"/>
<path d="M22.1339 67.6721L34.4504 55.6293L24.8082 55.521L17.6235 62.5459L22.1339 67.6721Z" fill="#1FC3F3" stroke="#1FC3F3" stroke-width="2"/>
<path d="M35.7781 79.8957L47.7048 68.7303L46.9515 79.6419L41.5 84.5L35.7781 79.8957Z" fill="#1FC3F3" stroke="#1FC3F3" stroke-width="2"/>
<path d="M57.9822 55.9154L47.8318 45.7651L51.8919 42.8468L60.6466 41.1974L63.1842 42.4662L61.7886 52.4897L57.9822 55.9154Z" fill="#E92F3F" stroke="#E92F3F" stroke-width="2"/>
<path d="M22.0751 73.0442L22.5 68L35.9546 80.2677L35 79.5L30.1954 80.7838L22.0751 73.0442Z" fill="#5F686D"/>
<path d="M20 65.5L22.5 68M22.5 68L22.0751 73.0442L30.1954 80.7838L35 79.5L36 80.3042M22.5 68L36.1886 80.4811" stroke="#5F686D" stroke-width="3"/>
<path d="M49.9887 43.735C54.3026 41.1974 62.5498 41.3243 62.5498 41.3243C62.5498 41.3243 63.6917 48.3027 61.6617 52.6166C59.6316 56.9305 47.1974 69.9991 47.1974 69.9991L47.3242 79.642L41.3609 85.6053L36.1588 80.4032L31.2105 81.4183L27.0235 85.6053C27.0235 85.6053 18.7763 86.4935 18.1419 85.6053C17.5075 84.7172 18.1419 76.8506 18.1419 76.8506L21.3139 72.6636L22.0752 67.5884L17 62.5132L24.1053 55.4079H33.875C33.875 55.4079 45.6748 46.2726 49.9887 43.735Z" stroke="black" stroke-width="3"/>
<circle cx="45.2942" cy="57.438" r="4.18703" fill="#D9D9D9"/>
<circle cx="45.2941" cy="57.438" r="2.66447" fill="white"/>
</g>
<path fill-rule="evenodd" clip-rule="evenodd" d="M55.8946 86.5414H54.1974V80.0294H52V78.458H58.1149V80.029H55.8946V86.5414ZM59.7099 86.5414H58.1172V80.8493H59.7099V81.7593C59.9079 81.2017 60.5007 80.7806 61.1517 80.7806C61.3324 80.7766 61.5127 80.7996 61.6863 80.8488V82.4315C61.4424 82.3515 61.2329 82.3062 60.9661 82.3062C60.2096 82.3062 59.7099 82.8755 59.7099 83.8206V86.5414ZM66.4176 85.9034C66.1498 86.268 65.5456 86.6667 64.7433 86.6667L64.7438 86.6671C63.1974 86.6671 62.0113 85.3009 62.0113 83.6953C62.0113 82.0902 63.1974 80.724 64.7433 80.724C65.5456 80.724 66.1498 81.1227 66.4176 81.4868V80.8493H68.0103V86.5409H66.4176V85.9034ZM63.6155 83.6953C63.6155 84.5946 64.1968 85.2434 65.0807 85.2434C65.9642 85.2434 66.5455 84.5946 66.5455 83.6953C66.5455 82.7956 65.9642 82.1463 65.0807 82.1463C64.1968 82.1463 63.6155 82.7956 63.6155 83.6953ZM73.476 85.9034C73.2087 86.268 72.6045 86.6667 71.8022 86.6667V86.6671C70.2558 86.6671 69.0698 85.3009 69.0698 83.6953C69.0698 82.0902 70.2558 80.724 71.8022 80.724C72.6045 80.724 73.2087 81.1227 73.476 81.4873V78.0032H75.0687V86.5409H73.476V85.9034ZM70.6744 83.6953C70.6744 84.5946 71.2557 85.2434 72.1391 85.2434C73.0226 85.2434 73.6039 84.5946 73.6039 83.6953C73.6039 82.7956 73.0226 82.1463 72.1391 82.1463C71.2557 82.1463 70.6744 82.7956 70.6744 83.6953ZM77.6815 79.9081C77.5576 79.9573 77.425 79.9821 77.2913 79.9809C77.0237 79.9788 76.7677 79.8738 76.5785 79.6885C76.3893 79.5032 76.2821 79.2525 76.2799 78.9905C76.2821 78.7285 76.3893 78.4778 76.5785 78.2925C76.7677 78.1072 77.0237 78.0021 77.2913 78C77.425 77.9989 77.5576 78.0237 77.6815 78.0729C77.8054 78.1221 77.9181 78.1949 78.0132 78.2869C78.1083 78.379 78.1839 78.4885 78.2356 78.6092C78.2873 78.73 78.3142 78.8595 78.3146 78.9905C78.3142 79.1214 78.2873 79.251 78.2356 79.3717C78.1839 79.4925 78.1083 79.602 78.0132 79.6941C77.9181 79.7861 77.8054 79.8588 77.6815 79.9081ZM78.0936 86.5414H76.5009V80.9139H78.0936V86.5414ZM81.0992 86.5414H79.5066V80.8488H81.0992V81.4976C81.4133 81.0423 82.0061 80.7235 82.7621 80.7235C84.1686 80.7235 85.0058 81.7257 85.0058 83.2055V86.5414H83.4131V83.4672C83.4131 82.6479 83.0523 82.1468 82.3898 82.1468C81.6457 82.1468 81.0992 82.6703 81.0992 83.7636V86.5414ZM87.5823 83.5692C87.5823 84.4343 88.2562 85.0265 89.0585 85.0265C89.8608 85.0265 90.5348 84.4343 90.5348 83.5692C90.5348 82.6928 89.8608 82.1118 89.0585 82.1118C88.2562 82.1118 87.5823 82.6928 87.5823 83.5692ZM92 86.0623C92 88.1119 90.6512 89 88.8724 89C87.861 89 86.8263 88.7158 86.1638 88.0895L87.0358 86.9284C87.5475 87.4178 88.1985 87.6342 88.8495 87.6342C89.7911 87.6342 90.4073 86.9854 90.4073 86.0745V85.6874C90.0933 86.1086 89.4656 86.4386 88.7216 86.4386C87.1986 86.4386 85.9777 85.1635 85.9777 83.5696C85.9777 81.9645 87.1986 80.6894 88.7216 80.6894C89.4652 80.6894 90.0933 81.0082 90.4073 81.4518V80.8142H92V86.0623Z" fill="black"/>
<path d="M53.24 76.028C53.0453 76.028 52.8693 75.9947 52.712 75.928C52.5573 75.8613 52.4347 75.7653 52.344 75.64C52.2533 75.5147 52.2067 75.3667 52.204 75.196H52.804C52.812 75.3107 52.852 75.4013 52.924 75.468C52.9987 75.5347 53.1 75.568 53.228 75.568C53.3587 75.568 53.4613 75.5373 53.536 75.476C53.6107 75.412 53.648 75.3293 53.648 75.228C53.648 75.1453 53.6227 75.0773 53.572 75.024C53.5213 74.9707 53.4573 74.9293 53.38 74.9C53.3053 74.868 53.2013 74.8333 53.068 74.796C52.8867 74.7427 52.7387 74.6907 52.624 74.64C52.512 74.5867 52.4147 74.508 52.332 74.404C52.252 74.2973 52.212 74.156 52.212 73.98C52.212 73.8147 52.2533 73.6707 52.336 73.548C52.4187 73.4253 52.5347 73.332 52.684 73.268C52.8333 73.2013 53.004 73.168 53.196 73.168C53.484 73.168 53.7173 73.2387 53.896 73.38C54.0773 73.5187 54.1773 73.7133 54.196 73.964H53.58C53.5747 73.868 53.5333 73.7893 53.456 73.728C53.3813 73.664 53.2813 73.632 53.156 73.632C53.0467 73.632 52.9587 73.66 52.892 73.716C52.828 73.772 52.796 73.8533 52.796 73.96C52.796 74.0347 52.82 74.0973 52.868 74.148C52.9187 74.196 52.98 74.236 53.052 74.268C53.1267 74.2973 53.2307 74.332 53.364 74.372C53.5453 74.4253 53.6933 74.4787 53.808 74.532C53.9227 74.5853 54.0213 74.6653 54.104 74.772C54.1867 74.8787 54.228 75.0187 54.228 75.192C54.228 75.3413 54.1893 75.48 54.112 75.608C54.0347 75.736 53.9213 75.8387 53.772 75.916C53.6227 75.9907 53.4453 76.028 53.24 76.028ZM55.3655 74.244V75.316C55.3655 75.3907 55.3828 75.4453 55.4175 75.48C55.4548 75.512 55.5162 75.528 55.6015 75.528H55.8615V76H55.5095C55.0375 76 54.8015 75.7707 54.8015 75.312V74.244H54.5375V73.784H54.8015V73.236H55.3655V73.784H55.8615V74.244H55.3655ZM57.2483 76.036C57.0349 76.036 56.8429 75.9893 56.6723 75.896C56.5016 75.8 56.3669 75.6653 56.2683 75.492C56.1723 75.3187 56.1243 75.1187 56.1243 74.892C56.1243 74.6653 56.1736 74.4653 56.2723 74.292C56.3736 74.1187 56.5109 73.9853 56.6843 73.892C56.8576 73.796 57.0509 73.748 57.2643 73.748C57.4776 73.748 57.6709 73.796 57.8443 73.892C58.0176 73.9853 58.1536 74.1187 58.2523 74.292C58.3536 74.4653 58.4043 74.6653 58.4043 74.892C58.4043 75.1187 58.3523 75.3187 58.2483 75.492C58.1469 75.6653 58.0083 75.8 57.8323 75.896C57.6589 75.9893 57.4643 76.036 57.2483 76.036ZM57.2483 75.548C57.3496 75.548 57.4443 75.524 57.5323 75.476C57.6229 75.4253 57.6949 75.3507 57.7483 75.252C57.8016 75.1533 57.8283 75.0333 57.8283 74.892C57.8283 74.6813 57.7723 74.52 57.6603 74.408C57.5509 74.2933 57.4163 74.236 57.2563 74.236C57.0963 74.236 56.9616 74.2933 56.8523 74.408C56.7456 74.52 56.6923 74.6813 56.6923 74.892C56.6923 75.1027 56.7443 75.2653 56.8483 75.38C56.9549 75.492 57.0883 75.548 57.2483 75.548ZM58.6711 74.892C58.6711 74.6627 58.7177 74.4627 58.8111 74.292C58.9044 74.1187 59.0337 73.9853 59.1991 73.892C59.3644 73.796 59.5537 73.748 59.7671 73.748C60.0417 73.748 60.2684 73.8173 60.4471 73.956C60.6284 74.092 60.7497 74.284 60.8111 74.532H60.2071C60.1751 74.436 60.1204 74.3613 60.0431 74.308C59.9684 74.252 59.8751 74.224 59.7631 74.224C59.6031 74.224 59.4764 74.2827 59.3831 74.4C59.2897 74.5147 59.2431 74.6787 59.2431 74.892C59.2431 75.1027 59.2897 75.2667 59.3831 75.384C59.4764 75.4987 59.6031 75.556 59.7631 75.556C59.9897 75.556 60.1377 75.4547 60.2071 75.252H60.8111C60.7497 75.492 60.6284 75.6827 60.4471 75.824C60.2657 75.9653 60.0391 76.036 59.7671 76.036C59.5537 76.036 59.3644 75.9893 59.1991 75.896C59.0337 75.8 58.9044 75.6667 58.8111 75.496C58.7177 75.3227 58.6711 75.1213 58.6711 74.892ZM62.5333 76L61.7813 75.056V76H61.2213V73.04H61.7813V74.724L62.5253 73.784H63.2533L62.2773 74.896L63.2613 76H62.5333ZM65.1624 74.244V75.316C65.1624 75.3907 65.1797 75.4453 65.2144 75.48C65.2517 75.512 65.313 75.528 65.3984 75.528H65.6584V76H65.3064C64.8344 76 64.5984 75.7707 64.5984 75.312V74.244H64.3344V73.784H64.5984V73.236H65.1624V73.784H65.6584V74.244H65.1624ZM67.0452 76.036C66.8318 76.036 66.6398 75.9893 66.4692 75.896C66.2985 75.8 66.1638 75.6653 66.0652 75.492C65.9692 75.3187 65.9212 75.1187 65.9212 74.892C65.9212 74.6653 65.9705 74.4653 66.0692 74.292C66.1705 74.1187 66.3078 73.9853 66.4812 73.892C66.6545 73.796 66.8478 73.748 67.0612 73.748C67.2745 73.748 67.4678 73.796 67.6412 73.892C67.8145 73.9853 67.9505 74.1187 68.0492 74.292C68.1505 74.4653 68.2012 74.6653 68.2012 74.892C68.2012 75.1187 68.1492 75.3187 68.0452 75.492C67.9438 75.6653 67.8052 75.8 67.6292 75.896C67.4558 75.9893 67.2612 76.036 67.0452 76.036ZM67.0452 75.548C67.1465 75.548 67.2412 75.524 67.3292 75.476C67.4198 75.4253 67.4918 75.3507 67.5452 75.252C67.5985 75.1533 67.6252 75.0333 67.6252 74.892C67.6252 74.6813 67.5692 74.52 67.4572 74.408C67.3478 74.2933 67.2132 74.236 67.0532 74.236C66.8932 74.236 66.7585 74.2933 66.6492 74.408C66.5425 74.52 66.4892 74.6813 66.4892 74.892C66.4892 75.1027 66.5412 75.2653 66.6452 75.38C66.7518 75.492 66.8852 75.548 67.0452 75.548ZM70.2171 74.244V75.316C70.2171 75.3907 70.2344 75.4453 70.2691 75.48C70.3064 75.512 70.3677 75.528 70.4531 75.528H70.7131V76H70.3611C69.8891 76 69.6531 75.7707 69.6531 75.312V74.244H69.3891V73.784H69.6531V73.236H70.2171V73.784H70.7131V74.244H70.2171ZM72.3638 73.752C72.5318 73.752 72.6812 73.7893 72.8118 73.864C72.9425 73.936 73.0438 74.044 73.1158 74.188C73.1905 74.3293 73.2278 74.5 73.2278 74.7V76H72.6678V74.776C72.6678 74.6 72.6238 74.4653 72.5358 74.372C72.4478 74.276 72.3278 74.228 72.1758 74.228C72.0212 74.228 71.8985 74.276 71.8078 74.372C71.7198 74.4653 71.6758 74.6 71.6758 74.776V76H71.1158V73.04H71.6758V74.06C71.7478 73.964 71.8438 73.8893 71.9638 73.836C72.0838 73.78 72.2172 73.752 72.3638 73.752ZM75.8204 74.844C75.8204 74.924 75.815 74.996 75.8044 75.06H74.1844C74.1977 75.22 74.2537 75.3453 74.3524 75.436C74.451 75.5267 74.5724 75.572 74.7164 75.572C74.9244 75.572 75.0724 75.4827 75.1604 75.304H75.7644C75.7004 75.5173 75.5777 75.6933 75.3964 75.832C75.215 75.968 74.9924 76.036 74.7284 76.036C74.515 76.036 74.323 75.9893 74.1524 75.896C73.9844 75.8 73.8524 75.6653 73.7564 75.492C73.663 75.3187 73.6164 75.1187 73.6164 74.892C73.6164 74.6627 73.663 74.4613 73.7564 74.288C73.8497 74.1147 73.9804 73.9813 74.1484 73.888C74.3164 73.7947 74.5097 73.748 74.7284 73.748C74.939 73.748 75.127 73.7933 75.2924 73.884C75.4604 73.9747 75.5897 74.104 75.6804 74.272C75.7737 74.4373 75.8204 74.628 75.8204 74.844ZM75.2404 74.684C75.2377 74.54 75.1857 74.4253 75.0844 74.34C74.983 74.252 74.859 74.208 74.7124 74.208C74.5737 74.208 74.4564 74.2507 74.3604 74.336C74.267 74.4187 74.2097 74.5347 74.1884 74.684H75.2404ZM80.2263 73.208V76H79.6663V74.184L78.9183 76H78.4943L77.7423 74.184V76H77.1823V73.208H77.8183L78.7063 75.284L79.5943 73.208H80.2263ZM81.7639 76.036C81.5506 76.036 81.3586 75.9893 81.1879 75.896C81.0172 75.8 80.8826 75.6653 80.7839 75.492C80.6879 75.3187 80.6399 75.1187 80.6399 74.892C80.6399 74.6653 80.6892 74.4653 80.7879 74.292C80.8892 74.1187 81.0266 73.9853 81.1999 73.892C81.3732 73.796 81.5666 73.748 81.7799 73.748C81.9932 73.748 82.1866 73.796 82.3599 73.892C82.5332 73.9853 82.6692 74.1187 82.7679 74.292C82.8692 74.4653 82.9199 74.6653 82.9199 74.892C82.9199 75.1187 82.8679 75.3187 82.7639 75.492C82.6626 75.6653 82.5239 75.8 82.3479 75.896C82.1746 75.9893 81.9799 76.036 81.7639 76.036ZM81.7639 75.548C81.8652 75.548 81.9599 75.524 82.0479 75.476C82.1386 75.4253 82.2106 75.3507 82.2639 75.252C82.3172 75.1533 82.3439 75.0333 82.3439 74.892C82.3439 74.6813 82.2879 74.52 82.1759 74.408C82.0666 74.2933 81.9319 74.236 81.7719 74.236C81.6119 74.236 81.4772 74.2933 81.3679 74.408C81.2612 74.52 81.2079 74.6813 81.2079 74.892C81.2079 75.1027 81.2599 75.2653 81.3639 75.38C81.4706 75.492 81.6039 75.548 81.7639 75.548ZM84.3147 76.036C84.1014 76.036 83.9094 75.9893 83.7387 75.896C83.568 75.8 83.4334 75.6653 83.3347 75.492C83.2387 75.3187 83.1907 75.1187 83.1907 74.892C83.1907 74.6653 83.24 74.4653 83.3387 74.292C83.44 74.1187 83.5774 73.9853 83.7507 73.892C83.924 73.796 84.1174 73.748 84.3307 73.748C84.544 73.748 84.7374 73.796 84.9107 73.892C85.084 73.9853 85.22 74.1187 85.3187 74.292C85.42 74.4653 85.4707 74.6653 85.4707 74.892C85.4707 75.1187 85.4187 75.3187 85.3147 75.492C85.2134 75.6653 85.0747 75.8 84.8987 75.896C84.7254 75.9893 84.5307 76.036 84.3147 76.036ZM84.3147 75.548C84.416 75.548 84.5107 75.524 84.5987 75.476C84.6894 75.4253 84.7614 75.3507 84.8147 75.252C84.868 75.1533 84.8947 75.0333 84.8947 74.892C84.8947 74.6813 84.8387 74.52 84.7267 74.408C84.6174 74.2933 84.4827 74.236 84.3227 74.236C84.1627 74.236 84.028 74.2933 83.9187 74.408C83.812 74.52 83.7587 74.6813 83.7587 74.892C83.7587 75.1027 83.8107 75.2653 83.9147 75.38C84.0214 75.492 84.1547 75.548 84.3147 75.548ZM87.1095 73.752C87.3735 73.752 87.5868 73.836 87.7495 74.004C87.9121 74.1693 87.9935 74.4013 87.9935 74.7V76H87.4335V74.776C87.4335 74.6 87.3895 74.4653 87.3015 74.372C87.2135 74.276 87.0935 74.228 86.9415 74.228C86.7868 74.228 86.6641 74.276 86.5735 74.372C86.4855 74.4653 86.4415 74.6 86.4415 74.776V76H85.8815V73.784H86.4415V74.06C86.5161 73.964 86.6108 73.8893 86.7255 73.836C86.8428 73.78 86.9708 73.752 87.1095 73.752ZM90.2031 73.16L90.1391 75.092H89.6671L89.5991 73.16H90.2031ZM89.9151 76.028C89.8138 76.028 89.7298 75.9973 89.6631 75.936C89.5991 75.872 89.5671 75.7933 89.5671 75.7C89.5671 75.6067 89.5991 75.5293 89.6631 75.468C89.7298 75.404 89.8138 75.372 89.9151 75.372C90.0138 75.372 90.0951 75.404 90.1591 75.468C90.2231 75.5293 90.2551 75.6067 90.2551 75.7C90.2551 75.7933 90.2231 75.872 90.1591 75.936C90.0951 75.9973 90.0138 76.028 89.9151 76.028Z" fill="black"/>
<defs>
<filter id="filter0_d_358_34864" x="47" y="11" width="51" height="51" filterUnits="userSpaceOnUse" color-interpolation-filters="sRGB">
<feFlood flood-opacity="0" result="BackgroundImageFix"/>
<feColorMatrix in="SourceAlpha" type="matrix" values="0 0 0 0 0 0 0 0 0 0 0 0 0 0 0 0 0 0 127 0" result="hardAlpha"/>
<feOffset dy="4"/>
<feGaussianBlur stdDeviation="2"/>
<feComposite in2="hardAlpha" operator="out"/>
<feColorMatrix type="matrix" values="0 0 0 0 0 0 0 0 0 0 0 0 0 0 0 0 0 0 0.25 0"/>
<feBlend mode="normal" in2="BackgroundImageFix" result="effect1_dropShadow_358_34864"/>
<feBlend mode="normal" in="SourceGraphic" in2="effect1_dropShadow_358_34864" result="shape"/>
</filter>
<filter id="filter1_d_358_34864" x="10.8787" y="39.6974" width="57.4912" height="56.0292" filterUnits="userSpaceOnUse" color-interpolation-filters="sRGB">
<feFlood flood-opacity="0" result="BackgroundImageFix"/>
<feColorMatrix in="SourceAlpha" type="matrix" values="0 0 0 0 0 0 0 0 0 0 0 0 0 0 0 0 0 0 127 0" result="hardAlpha"/>
<feOffset dy="4"/>
<feGaussianBlur stdDeviation="2"/>
<feComposite in2="hardAlpha" operator="out"/>
<feColorMatrix type="matrix" values="0 0 0 0 0 0 0 0 0 0 0 0 0 0 0 0 0 0 0.25 0"/>
<feBlend mode="normal" in2="BackgroundImageFix" result="effect1_dropShadow_358_34864"/>
<feBlend mode="normal" in="SourceGraphic" in2="effect1_dropShadow_358_34864" result="shape"/>
</filter>
<linearGradient id="paint0_linear_358_34864" x1="50" y1="4.42857" x2="50" y2="119.286" gradientUnits="userSpaceOnUse">
<stop offset="0.05" stop-color="#22285A"/>
<stop offset="0.6" stop-color="#F98E76"/>
</linearGradient>
<clipPath id="clip0_358_34864">
<rect x="51" y="11" width="43" height="43" rx="21.5" fill="white"/>
</clipPath>
<clipPath id="clip1_358_34864">
<rect x="49" y="15" width="36" height="36" rx="18" fill="white"/>
</clipPath>
</defs>
</svg>
